<svg width="444.1" height="101.901" viewBox="0 0 444.1 101.901" xmlns="http://www.w3.org/2000/svg"><g id="svgGroup" stroke-linecap="round" fill-rule="evenodd" font-size="9pt" stroke="#000" stroke-width="0.1mm" fill="#000" style="stroke:#000;stroke-width:0.1mm;fill:#000"><path d="M 18 80.2 L 32.5 73.5 A 34.648 34.648 0 0 1 21.046 70.992 A 31.928 31.928 0 0 1 15.75 68.2 Q 8.4 63.4 4.2 55.3 A 37.392 37.392 0 0 1 0.334 42.478 A 47.115 47.115 0 0 1 0 36.8 A 43.845 43.845 0 0 1 0.917 27.675 A 36.777 36.777 0 0 1 2.6 22 A 35.61 35.61 0 0 1 8.313 12.138 A 33.415 33.415 0 0 1 9.85 10.4 Q 14.5 5.5 20.85 2.8 A 34.287 34.287 0 0 1 32.385 0.166 A 40.243 40.243 0 0 1 34.7 0.1 A 36.484 36.484 0 0 1 44.469 1.376 A 32.703 32.703 0 0 1 48.55 2.8 Q 54.9 5.5 59.55 10.4 Q 64.2 15.3 66.8 22 A 38.547 38.547 0 0 1 69.195 32.354 A 47.049 47.049 0 0 1 69.4 36.8 A 44.416 44.416 0 0 1 68.305 46.862 A 36.057 36.057 0 0 1 65.4 54.95 Q 61.4 62.9 54.35 67.75 A 32.818 32.818 0 0 1 39.33 73.284 A 38.938 38.938 0 0 1 38.2 73.4 L 26.2 79 L 26.9 79 A 27.92 27.92 0 0 1 31.779 79.404 Q 35.108 79.995 37.75 81.45 Q 42.2 83.9 46.2 87.2 Q 49.9 90.2 53.65 92.4 Q 57.4 94.6 61.2 94.6 Q 64.6 94.6 67.5 92.6 A 6.891 6.891 0 0 0 69.542 90.309 Q 70.657 88.369 71.139 85.313 A 24.733 24.733 0 0 0 71.2 84.9 L 73.2 84.9 Q 72.741 90.281 71.162 94.026 A 16.344 16.344 0 0 1 69.2 97.5 A 10.6 10.6 0 0 1 62.83 101.512 A 16.86 16.86 0 0 1 59.1 101.9 Q 54.4 101.9 50.9 100.4 Q 47.4 98.9 44.7 96.75 Q 42 94.6 39.7 92.7 Q 35.26 89.025 31.405 86.669 A 44.071 44.071 0 0 0 29.1 85.35 A 24.829 24.829 0 0 0 19.401 82.561 A 28.84 28.84 0 0 0 18.5 82.5 A 62.358 62.358 0 0 0 15.329 84.638 A 56.749 56.749 0 0 0 14.9 84.95 Q 13.2 86.2 11.8 87.6 A 18.259 18.259 0 0 1 9.426 89.611 A 16.542 16.542 0 0 1 8.85 90 A 6.286 6.286 0 0 1 7.008 90.822 A 5.617 5.617 0 0 1 5.6 91 Q 4.3 91 3.5 90.15 Q 2.7 89.3 2.7 87.7 Q 2.7 84 7 82.1 Q 10.343 80.623 15.136 80.294 A 41.885 41.885 0 0 1 18 80.2 Z M 84 60.7 L 84 41.3 Q 84 37.838 83.645 35.886 A 9.061 9.061 0 0 0 83.4 34.85 A 5.056 5.056 0 0 0 82.904 33.716 A 3.287 3.287 0 0 0 81.25 32.3 A 9.847 9.847 0 0 0 80.15 31.954 Q 78.985 31.655 77.349 31.461 A 36.391 36.391 0 0 0 76.8 31.4 L 75.2 31.2 L 75.2 28.9 L 87.5 29.2 L 91 29.1 L 91 60.3 Q 91 63.834 92.301 66.172 A 7.826 7.826 0 0 0 93.5 67.8 A 8.275 8.275 0 0 0 98.024 70.194 A 12.02 12.02 0 0 0 100.3 70.4 A 14.12 14.12 0 0 0 103.992 69.934 A 11.829 11.829 0 0 0 106.85 68.75 Q 109.7 67.1 111.75 64.5 A 26.639 26.639 0 0 0 113.981 61.211 A 22.511 22.511 0 0 0 115 59.2 L 115 41.3 Q 115 37.838 114.645 35.886 A 9.061 9.061 0 0 0 114.4 34.85 A 5.056 5.056 0 0 0 113.904 33.716 A 3.287 3.287 0 0 0 112.25 32.3 A 9.847 9.847 0 0 0 111.15 31.954 Q 109.985 31.655 108.349 31.461 A 36.391 36.391 0 0 0 107.8 31.4 L 106.2 31.2 L 106.2 28.9 L 118.5 29.2 L 122 29.1 L 122 61.4 A 24.309 24.309 0 0 0 122.076 63.383 Q 122.268 65.72 122.95 67.05 A 5.173 5.173 0 0 0 124.039 68.509 A 4.573 4.573 0 0 0 125.75 69.5 Q 127.6 70.1 130.3 70.1 L 130.3 72.4 Q 126.2 72.4 122.8 72.5 A 41.848 41.848 0 0 0 119.634 72.721 Q 118.015 72.893 116.218 73.189 A 74.428 74.428 0 0 0 115 73.4 L 115 64.2 A 21.118 21.118 0 0 1 113.844 65.873 A 16.917 16.917 0 0 1 112.9 67 A 20.82 20.82 0 0 1 106.945 71.574 A 23.713 23.713 0 0 1 106.6 71.75 A 17.259 17.259 0 0 1 101.507 73.34 A 22.753 22.753 0 0 1 98 73.6 A 21.025 21.025 0 0 1 93.857 73.216 Q 91.351 72.712 89.404 71.546 A 11.69 11.69 0 0 1 87.75 70.35 A 10.373 10.373 0 0 1 84.539 65.098 Q 84.069 63.375 84.009 61.308 A 21.086 21.086 0 0 1 84 60.7 Z M 201 72.5 L 163.9 72.5 L 163.2 70.5 L 193.5 31.3 L 186.2 31.3 Q 181.41 31.3 177.717 32.068 A 27.417 27.417 0 0 0 176.5 32.35 A 13.608 13.608 0 0 0 172.404 34.116 A 12.113 12.113 0 0 0 169.85 36.35 A 12.893 12.893 0 0 0 168.018 39.201 Q 167.363 40.559 166.87 42.224 A 29.403 29.403 0 0 0 166.2 45 L 163.9 45 L 166.1 36 L 167.2 28.9 L 201.8 28.9 L 202.5 30.8 L 172.1 70 L 182.9 70 A 36.586 36.586 0 0 0 187.037 69.777 A 26.923 26.923 0 0 0 190.95 69.05 Q 194.5 68.1 196.9 65.25 Q 199.3 62.4 200 56.7 L 202.3 56.7 L 201.1 67.2 L 201 72.5 Z M 427.6 43.7 L 427.6 40.5 Q 427.6 35.156 425.665 32.456 A 7.001 7.001 0 0 0 425.55 32.3 Q 423.576 29.699 418.215 29.604 A 23.227 23.227 0 0 0 417.8 29.6 Q 415.1 29.6 412.5 30.3 A 5.971 5.971 0 0 0 411.456 30.679 Q 410.915 30.94 410.562 31.288 A 2.175 2.175 0 0 0 409.9 32.9 A 2.556 2.556 0 0 0 409.933 33.295 Q 409.963 33.489 410.022 33.701 A 4.555 4.555 0 0 0 410.05 33.8 Q 410.2 34.3 410.3 34.8 Q 410.8 36.1 410.8 37.5 A 4.273 4.273 0 0 1 410.615 38.793 A 3.332 3.332 0 0 1 409.45 40.45 A 4.968 4.968 0 0 1 406.837 41.469 A 6.402 6.402 0 0 1 406.2 41.5 A 3.828 3.828 0 0 1 403.353 40.313 A 4.703 4.703 0 0 1 403.2 40.15 A 4.712 4.712 0 0 1 402.001 36.959 A 5.971 5.971 0 0 1 402 36.9 A 7.585 7.585 0 0 1 402.517 34.051 A 6.936 6.936 0 0 1 404.75 31.15 Q 407.5 29 411.5 28.05 A 35.057 35.057 0 0 1 416.799 27.197 A 30.043 30.043 0 0 1 419.2 27.1 A 27.531 27.531 0 0 1 423.36 27.393 Q 428.241 28.141 430.9 30.8 A 10.916 10.916 0 0 1 433.33 34.67 Q 434.6 37.977 434.6 42.895 A 26.23 26.23 0 0 1 434.6 42.9 L 434.6 60.9 A 48.292 48.292 0 0 0 434.658 63.336 Q 434.793 66.013 435.25 67.7 A 4.178 4.178 0 0 0 435.708 68.799 Q 436.507 70.1 438.2 70.1 A 3.547 3.547 0 0 0 440.766 69.034 A 4.527 4.527 0 0 0 440.8 69 Q 441.9 67.9 442.3 66.6 L 444.1 67.3 A 9.957 9.957 0 0 1 443.032 69.828 A 8.175 8.175 0 0 1 441.25 71.9 A 6.905 6.905 0 0 1 438.724 73.201 Q 437.711 73.494 436.501 73.572 A 14.036 14.036 0 0 1 435.6 73.6 A 11.836 11.836 0 0 1 433.457 73.42 Q 432.289 73.204 431.399 72.73 A 4.906 4.906 0 0 1 429.55 71.05 Q 428.182 68.936 427.811 65.687 A 21.033 21.033 0 0 1 427.7 64.3 A 20.352 20.352 0 0 1 423.379 69.302 A 18.612 18.612 0 0 1 420.6 71.2 Q 416.3 73.6 411.2 73.6 A 15.459 15.459 0 0 1 407.573 73.196 A 11.231 11.231 0 0 1 403.25 71.15 A 7.964 7.964 0 0 1 400.144 65.304 A 11.395 11.395 0 0 1 400.1 64.3 A 9.541 9.541 0 0 1 402.283 58.249 A 14.033 14.033 0 0 1 404 56.45 Q 407.9 53 413.1 50.2 Q 417 48 420.9 46.4 A 667.646 667.646 0 0 1 423.671 45.27 Q 424.761 44.829 425.743 44.436 A 343.628 343.628 0 0 1 427.6 43.7 Z M 269.1 72.5 L 256.8 72.8 L 256.8 70.5 L 258.4 70.3 Q 261.3 69.9 262.85 69.35 A 3.151 3.151 0 0 0 264.554 67.896 A 5.036 5.036 0 0 0 265 66.85 A 9.545 9.545 0 0 0 265.277 65.634 Q 265.497 64.323 265.567 62.376 A 54.842 54.842 0 0 0 265.6 60.4 L 265.6 39.6 A 23.063 23.063 0 0 0 265.522 37.624 Q 265.354 35.674 264.824 34.446 A 5.05 5.05 0 0 0 264.55 33.9 A 4.742 4.742 0 0 0 263.167 32.369 A 4.68 4.68 0 0 0 261.5 31.65 A 17.089 17.089 0 0 0 259.616 31.342 Q 258.319 31.2 256.8 31.2 L 256.8 28.9 Q 260.9 28.9 264.7 28.6 A 115.976 115.976 0 0 0 270.569 27.981 A 131.397 131.397 0 0 0 272.6 27.7 L 271.5 39.2 L 271.9 39.2 Q 274.1 32.5 277.3 29.8 A 12.152 12.152 0 0 1 280.196 27.954 A 9.76 9.76 0 0 1 284.2 27.1 A 13.35 13.35 0 0 1 286.119 27.227 Q 288.328 27.549 289.423 28.687 A 3.568 3.568 0 0 1 289.8 29.15 A 9.417 9.417 0 0 1 290.647 30.651 Q 291.053 31.572 291.161 32.461 A 5.294 5.294 0 0 1 291.2 33.1 A 6.088 6.088 0 0 1 290.986 34.755 A 4.679 4.679 0 0 1 289.9 36.7 A 4.303 4.303 0 0 1 287.289 38.038 A 6.108 6.108 0 0 1 286.4 38.1 Q 284.966 38.1 283.998 37.633 A 3.321 3.321 0 0 1 283.2 37.1 A 3.705 3.705 0 0 1 282.519 36.29 A 2.814 2.814 0 0 1 282.1 34.8 A 7.179 7.179 0 0 1 282.278 33.184 A 6.574 6.574 0 0 1 282.35 32.9 Q 282.567 32.12 282.596 31.64 A 2.34 2.34 0 0 0 282.6 31.5 A 0.993 0.993 0 0 0 282.491 31.018 Q 282.268 30.609 281.594 30.523 A 3.107 3.107 0 0 0 281.2 30.5 Q 280.083 30.5 278.871 31.328 A 7.889 7.889 0 0 0 278.25 31.8 A 8.941 8.941 0 0 0 276.751 33.435 Q 276.183 34.222 275.7 35.196 A 15.237 15.237 0 0 0 275.6 35.4 A 38.626 38.626 0 0 0 274.567 37.797 A 48.129 48.129 0 0 0 273.9 39.6 A 32.184 32.184 0 0 0 272.961 42.871 A 38.589 38.589 0 0 0 272.6 44.6 L 272.6 60.4 Q 272.6 63.862 272.956 65.814 A 9.061 9.061 0 0 0 273.2 66.85 A 4.994 4.994 0 0 0 273.668 67.932 A 3.141 3.141 0 0 0 275.35 69.35 A 12.695 12.695 0 0 0 276.447 69.678 Q 277.613 69.976 279.252 70.221 A 48.171 48.171 0 0 0 279.8 70.3 L 281.4 70.5 L 281.4 72.8 L 269.1 72.5 Z M 249.1 48 L 218.9 48 Q 218.8 49.4 218.8 50.8 A 29.125 29.125 0 0 0 219.604 57.733 A 25.861 25.861 0 0 0 220.5 60.65 A 17.534 17.534 0 0 0 222.883 65.073 A 15.04 15.04 0 0 0 225.65 67.9 A 12.614 12.614 0 0 0 231.842 70.452 A 16.695 16.695 0 0 0 234.1 70.6 Q 238.8 70.6 242.45 67.95 Q 246.1 65.3 248.1 60.1 L 250.5 61 Q 246.939 71.684 236.62 73.309 A 25.198 25.198 0 0 1 232.7 73.6 A 25.868 25.868 0 0 1 226.887 72.974 A 20.287 20.287 0 0 1 221.2 70.75 Q 216.3 67.9 213.55 62.85 Q 210.8 57.8 210.8 51.3 A 27.931 27.931 0 0 1 211.647 44.3 A 23.349 23.349 0 0 1 213.8 38.85 Q 216.8 33.4 221.85 30.25 Q 226.9 27.1 233 27.1 A 19.458 19.458 0 0 1 238.102 27.733 A 13.967 13.967 0 0 1 245.05 32 A 16.797 16.797 0 0 1 248.886 39.766 A 24.336 24.336 0 0 1 249.4 44.9 Q 249.4 46.1 249.3 46.9 A 16.592 16.592 0 0 1 249.252 47.258 Q 249.18 47.749 249.107 47.979 A 1.366 1.366 0 0 1 249.1 48 Z M 335 48 L 304.8 48 Q 304.7 49.4 304.7 50.8 A 29.125 29.125 0 0 0 305.504 57.733 A 25.861 25.861 0 0 0 306.4 60.65 A 17.534 17.534 0 0 0 308.783 65.073 A 15.04 15.04 0 0 0 311.55 67.9 A 12.614 12.614 0 0 0 317.742 70.452 A 16.695 16.695 0 0 0 320 70.6 Q 324.7 70.6 328.35 67.95 Q 332 65.3 334 60.1 L 336.4 61 Q 332.839 71.684 322.52 73.309 A 25.198 25.198 0 0 1 318.6 73.6 A 25.868 25.868 0 0 1 312.787 72.974 A 20.287 20.287 0 0 1 307.1 70.75 Q 302.2 67.9 299.45 62.85 Q 296.7 57.8 296.7 51.3 A 27.931 27.931 0 0 1 297.547 44.3 A 23.349 23.349 0 0 1 299.7 38.85 Q 302.7 33.4 307.75 30.25 Q 312.8 27.1 318.9 27.1 A 19.458 19.458 0 0 1 324.002 27.733 A 13.967 13.967 0 0 1 330.95 32 A 16.797 16.797 0 0 1 334.786 39.766 A 24.336 24.336 0 0 1 335.3 44.9 Q 335.3 46.1 335.2 46.9 A 16.592 16.592 0 0 1 335.152 47.258 Q 335.08 47.749 335.007 47.979 A 1.366 1.366 0 0 1 335 48 Z M 353.7 72.5 L 341.4 72.8 L 341.4 70.5 L 343 70.3 Q 345.9 69.9 347.45 69.35 A 3.151 3.151 0 0 0 349.154 67.896 A 5.036 5.036 0 0 0 349.6 66.85 A 9.545 9.545 0 0 0 349.877 65.634 Q 350.097 64.323 350.167 62.376 A 54.842 54.842 0 0 0 350.2 60.4 L 350.2 11.6 A 19.446 19.446 0 0 0 350.086 9.402 Q 349.832 7.177 349.011 5.939 A 3.517 3.517 0 0 0 348.05 4.95 A 7.565 7.565 0 0 0 345.943 3.985 Q 344.966 3.697 343.794 3.58 A 17.079 17.079 0 0 0 342.1 3.5 L 341.4 3.5 L 341.4 1.2 Q 345.5 1.2 349.3 0.95 Q 353.1 0.7 357.2 0 L 357.2 60.4 Q 357.2 63.862 357.556 65.814 A 9.061 9.061 0 0 0 357.8 66.85 A 4.994 4.994 0 0 0 358.268 67.932 A 3.141 3.141 0 0 0 359.95 69.35 A 12.695 12.695 0 0 0 361.047 69.678 Q 362.213 69.976 363.852 70.221 A 48.171 48.171 0 0 0 364.4 70.3 L 366 70.5 L 366 72.8 L 353.7 72.5 Z M 381.3 72.5 L 369 72.8 L 369 70.5 L 370.6 70.3 Q 373.5 69.9 375.05 69.35 A 3.151 3.151 0 0 0 376.754 67.896 A 5.036 5.036 0 0 0 377.2 66.85 A 9.545 9.545 0 0 0 377.477 65.634 Q 377.697 64.323 377.767 62.376 A 54.842 54.842 0 0 0 377.8 60.4 L 377.8 11.6 A 19.446 19.446 0 0 0 377.686 9.402 Q 377.432 7.177 376.611 5.939 A 3.517 3.517 0 0 0 375.65 4.95 A 7.565 7.565 0 0 0 373.543 3.985 Q 372.566 3.697 371.394 3.58 A 17.079 17.079 0 0 0 369.7 3.5 L 369 3.5 L 369 1.2 Q 373.1 1.2 376.9 0.95 Q 380.7 0.7 384.8 0 L 384.8 60.4 Q 384.8 63.862 385.156 65.814 A 9.061 9.061 0 0 0 385.4 66.85 A 4.994 4.994 0 0 0 385.868 67.932 A 3.141 3.141 0 0 0 387.55 69.35 A 12.695 12.695 0 0 0 388.647 69.678 Q 389.813 69.976 391.452 70.221 A 48.171 48.171 0 0 0 392 70.3 L 393.6 70.5 L 393.6 72.8 L 381.3 72.5 Z M 34.7 70.6 A 30.161 30.161 0 0 0 40.645 70.047 Q 44.328 69.307 47.213 67.574 A 17.649 17.649 0 0 0 48.8 66.5 A 21.591 21.591 0 0 0 54.855 59.232 A 28.888 28.888 0 0 0 56.7 54.85 A 45.888 45.888 0 0 0 58.453 47.402 Q 59.014 43.757 59.154 39.616 A 83.248 83.248 0 0 0 59.2 36.8 A 74.23 74.23 0 0 0 58.788 28.756 Q 58.185 23.233 56.7 18.75 A 27.317 27.317 0 0 0 53.958 12.814 A 20.776 20.776 0 0 0 48.8 7.15 Q 43.776 3.382 35.895 3.12 A 35.933 35.933 0 0 0 34.7 3.1 Q 27.024 3.1 21.858 6.327 A 18.076 18.076 0 0 0 20.65 7.15 Q 15.2 11.2 12.7 18.75 A 45.888 45.888 0 0 0 10.948 26.198 Q 10.387 29.843 10.247 33.984 A 83.248 83.248 0 0 0 10.2 36.8 A 74.23 74.23 0 0 0 10.613 44.844 Q 11.216 50.367 12.7 54.85 A 27.12 27.12 0 0 0 15.557 60.96 A 21.027 21.027 0 0 0 20.65 66.5 A 19.627 19.627 0 0 0 28.005 69.87 Q 30.785 70.532 34.025 70.594 A 35.304 35.304 0 0 0 34.7 70.6 Z M 146.4 72.5 L 134.1 72.8 L 134.1 70.5 L 135.7 70.3 Q 138.6 69.9 140.15 69.35 A 3.151 3.151 0 0 0 141.854 67.896 A 5.036 5.036 0 0 0 142.3 66.85 A 9.545 9.545 0 0 0 142.577 65.634 Q 142.797 64.323 142.867 62.376 A 54.842 54.842 0 0 0 142.9 60.4 L 142.9 39.3 A 19.446 19.446 0 0 0 142.786 37.102 Q 142.532 34.877 141.711 33.639 A 3.517 3.517 0 0 0 140.75 32.65 A 7.565 7.565 0 0 0 138.643 31.685 Q 137.666 31.397 136.494 31.28 A 17.079 17.079 0 0 0 134.8 31.2 L 134.1 31.2 L 134.1 28.9 Q 138.2 28.9 142 28.65 Q 145.8 28.4 149.9 27.7 L 149.9 60.4 Q 149.9 63.862 150.256 65.814 A 9.061 9.061 0 0 0 150.5 66.85 A 4.994 4.994 0 0 0 150.968 67.932 A 3.141 3.141 0 0 0 152.65 69.35 A 12.695 12.695 0 0 0 153.747 69.678 Q 154.913 69.976 156.552 70.221 A 48.171 48.171 0 0 0 157.1 70.3 L 158.7 70.5 L 158.7 72.8 L 146.4 72.5 Z M 427.6 60.3 L 427.6 45.7 Q 424.3 47.1 420.85 48.95 Q 417.4 50.8 414.45 53.1 A 24.695 24.695 0 0 0 411.641 55.643 A 19.536 19.536 0 0 0 409.7 58.05 Q 407.9 60.7 407.9 63.8 Q 407.9 66.6 409.55 68.25 A 5.251 5.251 0 0 0 411.731 69.534 Q 412.894 69.9 414.4 69.9 Q 417.3 69.9 419.95 68.5 Q 422.6 67.1 424.6 64.95 A 15.629 15.629 0 0 0 426.878 61.828 A 13.901 13.901 0 0 0 427.6 60.3 Z M 219.1 45.7 L 231.8 45.7 A 30.967 30.967 0 0 0 234.283 45.607 Q 236.704 45.412 238.28 44.804 A 7.73 7.73 0 0 0 238.65 44.65 A 10.025 10.025 0 0 0 239.973 43.945 Q 241.266 43.116 241.85 42.05 A 7.325 7.325 0 0 0 242.461 40.608 A 5.647 5.647 0 0 0 242.7 39 A 10.356 10.356 0 0 0 242.279 35.967 A 7.962 7.962 0 0 0 239.7 32.1 A 10.758 10.758 0 0 0 236.104 30.079 A 10.055 10.055 0 0 0 233 29.6 A 13.963 13.963 0 0 0 228.74 30.218 A 10.953 10.953 0 0 0 223.35 34 Q 219.9 38.4 219.1 45.7 Z M 305 45.7 L 317.7 45.7 A 30.967 30.967 0 0 0 320.183 45.607 Q 322.604 45.412 324.18 44.804 A 7.73 7.73 0 0 0 324.55 44.65 A 10.025 10.025 0 0 0 325.873 43.945 Q 327.166 43.116 327.75 42.05 A 7.325 7.325 0 0 0 328.361 40.608 A 5.647 5.647 0 0 0 328.6 39 A 10.356 10.356 0 0 0 328.179 35.967 A 7.962 7.962 0 0 0 325.6 32.1 A 10.758 10.758 0 0 0 322.004 30.079 A 10.055 10.055 0 0 0 318.9 29.6 A 13.963 13.963 0 0 0 314.64 30.218 A 10.953 10.953 0 0 0 309.25 34 Q 305.8 38.4 305 45.7 Z M 143.371 15.736 A 6.042 6.042 0 0 0 145.2 16 A 9.015 9.015 0 0 0 145.458 15.996 Q 146.348 15.971 147.085 15.768 A 4.283 4.283 0 0 0 149.45 14.2 A 6.528 6.528 0 0 0 150.473 12.191 A 7.742 7.742 0 0 0 150.8 9.9 A 8.719 8.719 0 0 0 150.681 8.427 A 6.396 6.396 0 0 0 149.45 5.55 A 4.064 4.064 0 0 0 148.564 4.701 Q 147.826 4.183 146.824 3.962 A 7.572 7.572 0 0 0 145.2 3.8 A 7.003 7.003 0 0 0 144.396 3.845 A 4.918 4.918 0 0 0 141.1 5.55 Q 139.6 7.3 139.6 9.9 A 8.16 8.16 0 0 0 139.604 10.152 A 6.45 6.45 0 0 0 141.1 14.2 A 4.782 4.782 0 0 0 143.371 15.736 Z" vector-effect="non-scaling-stroke"/></g></svg>